<svg width="25" height="24" viewBox="0 0 25 24" fill="none" xmlns="http://www.w3.org/2000/svg">
<path fill-rule="evenodd" clip-rule="evenodd" d="M15.1073 2.0117C15.0642 2.00401 15.0199 2 14.9746 2C14.9293 2 14.885 2.00401 14.8419 2.0117H8.584C6.0967 2.0117 4 4.02953 4 6.4907V17.2037C4 19.8043 6.0046 21.8647 8.584 21.8647H16.573C19.0263 21.8647 21.052 19.7028 21.052 17.2037V8.0377C21.052 7.84408 20.9771 7.65797 20.843 7.5183L15.778 2.2423C15.6366 2.09498 15.4412 2.0117 15.237 2.0117H15.1073ZM14.2246 3.5109L8.584 3.5117C6.91254 3.5117 5.5 4.8711 5.5 6.4907V17.2037C5.5 18.9849 6.84239 20.3647 8.584 20.3647H16.573C18.1753 20.3647 19.552 18.8954 19.552 17.2037L19.5513 8.98309L18.6762 8.98607C18.3425 8.98566 17.963 8.98496 17.541 8.984C15.7715 8.98026 14.3273 7.59329 14.2299 5.84739L14.2246 5.659V3.5109ZM18.7305 7.48384L17.5443 7.484C16.5388 7.48188 15.7246 6.66546 15.7246 5.659V4.35277L18.7305 7.48384ZM14.7847 14.8076C15.1989 14.8076 15.5347 15.1434 15.5347 15.5576C15.5347 15.9373 15.2525 16.2511 14.8865 16.3008L14.7847 16.3076H9.3877C8.97348 16.3076 8.6377 15.9718 8.6377 15.5576C8.6377 15.1779 8.91985 14.8641 9.28592 14.8145L9.3877 14.8076H14.7847ZM13.4928 10.6054C13.4928 10.1912 13.157 9.8554 12.7428 9.8554H9.3868L9.28503 9.86225C8.91895 9.91191 8.6368 10.2257 8.6368 10.6054C8.6368 11.0196 8.97259 11.3554 9.3868 11.3554H12.7428L12.8446 11.3486C13.2106 11.2989 13.4928 10.9851 13.4928 10.6054Z" fill="#838383"/>
</svg>
