<svg width="24" height="24" viewBox="0 0 24 24" fill="none" xmlns="http://www.w3.org/2000/svg">
<path fill-rule="evenodd" clip-rule="evenodd" d="M20.339 7.65899C21.009 8.17799 21.42 8.94899 21.49 9.78799L21.5 9.98899V18.098C21.5 20.188 19.849 21.888 17.78 21.998H15.79C14.839 21.979 14.07 21.239 14 20.309L13.99 20.168V17.309C13.99 16.998 13.759 16.739 13.45 16.688L13.36 16.678H10.689C10.37 16.688 10.11 16.918 10.07 17.218L10.06 17.309V20.159C10.06 20.218 10.049 20.288 10.04 20.338L10.03 20.359L10.019 20.428C9.9 21.279 9.2 21.928 8.33 21.989L8.2 21.998H6.41C4.32 21.998 2.61 20.359 2.5 18.298V9.98899C2.509 9.13799 2.88 8.34799 3.5 7.79799L9.73 2.78799C11 1.77899 12.78 1.73899 14.089 2.66799L14.25 2.78799L20.339 7.65899ZM20.0987 18.2582L20.1097 18.0982V9.99825C20.0987 9.56925 19.9197 9.16825 19.6097 8.86925L19.4797 8.75825L13.3797 3.87825C12.6197 3.26825 11.5397 3.23925 10.7397 3.76825L10.5887 3.87825L4.50867 8.77925C4.15967 9.03825 3.94967 9.42825 3.89967 9.83825L3.88867 9.99825V18.0982C3.88867 19.4282 4.92867 20.5182 6.24967 20.5982H8.19967C8.41967 20.5982 8.60967 20.4492 8.63867 20.2392L8.65967 20.0592L8.66967 20.0082V17.3092C8.66967 16.2392 9.48967 15.3692 10.5397 15.2882H13.3597C14.4287 15.2882 15.2987 16.1092 15.3797 17.1592V20.1682C15.3797 20.3782 15.5297 20.5592 15.7297 20.5982H17.5887C18.9287 20.5982 20.0187 19.5692 20.0987 18.2582Z" fill="#00439D"/>
</svg>
