<svg width="234" height="148" viewBox="0 0 234 148" fill="none" xmlns="http://www.w3.org/2000/svg">
<path d="M44.768 123.504C44.768 121.84 45.112 120.36 45.8 119.064C46.504 117.752 47.496 116.736 48.776 116.016C50.056 115.28 51.528 114.912 53.192 114.912C55.304 114.912 57.08 115.48 58.52 116.616C59.96 117.736 60.888 119.264 61.304 121.2H56.24C55.936 120.56 55.512 120.072 54.968 119.736C54.44 119.4 53.824 119.232 53.12 119.232C52.032 119.232 51.16 119.624 50.504 120.408C49.864 121.176 49.544 122.208 49.544 123.504C49.544 124.816 49.864 125.864 50.504 126.648C51.16 127.416 52.032 127.8 53.12 127.8C53.824 127.8 54.44 127.632 54.968 127.296C55.512 126.96 55.936 126.472 56.24 125.832H61.304C60.888 127.768 59.96 129.304 58.52 130.44C57.08 131.56 55.304 132.12 53.192 132.12C51.528 132.12 50.056 131.76 48.776 131.04C47.496 130.304 46.504 129.288 45.8 127.992C45.112 126.68 44.768 125.184 44.768 123.504ZM72.8293 128.4H78.0853V132H68.1253V115.08H72.8293V128.4ZM89.2121 115.08V132H84.5081V115.08H89.2121ZM112.157 132H107.453L101.189 122.544V132H96.4846V115.08H101.189L107.453 124.656V115.08H112.157V132ZM124.134 115.08V132H119.43V115.08H124.134ZM130.831 123.504C130.831 121.84 131.175 120.36 131.863 119.064C132.567 117.752 133.559 116.736 134.839 116.016C136.119 115.28 137.591 114.912 139.255 114.912C141.367 114.912 143.143 115.48 144.583 116.616C146.023 117.736 146.951 119.264 147.367 121.2H142.303C141.999 120.56 141.575 120.072 141.031 119.736C140.503 119.4 139.887 119.232 139.183 119.232C138.095 119.232 137.223 119.624 136.567 120.408C135.927 121.176 135.607 122.208 135.607 123.504C135.607 124.816 135.927 125.864 136.567 126.648C137.223 127.416 138.095 127.8 139.183 127.8C139.887 127.8 140.503 127.632 141.031 127.296C141.575 126.96 141.999 126.472 142.303 125.832H147.367C146.951 127.768 146.023 129.304 144.583 130.44C143.143 131.56 141.367 132.12 139.255 132.12C137.591 132.12 136.119 131.76 134.839 131.04C133.559 130.304 132.567 129.288 131.863 127.992C131.175 126.68 130.831 125.184 130.831 123.504ZM160.572 132.168C158.604 132.168 156.988 131.704 155.724 130.776C154.46 129.832 153.78 128.488 153.684 126.744H158.7C158.748 127.336 158.924 127.768 159.228 128.04C159.532 128.312 159.924 128.448 160.404 128.448C160.836 128.448 161.188 128.344 161.46 128.136C161.748 127.912 161.892 127.608 161.892 127.224C161.892 126.728 161.66 126.344 161.196 126.072C160.732 125.8 159.98 125.496 158.94 125.16C157.836 124.792 156.94 124.44 156.252 124.104C155.58 123.752 154.988 123.248 154.476 122.592C153.98 121.92 153.732 121.048 153.732 119.976C153.732 118.888 154.004 117.96 154.548 117.192C155.092 116.408 155.844 115.816 156.804 115.416C157.764 115.016 158.852 114.816 160.068 114.816C162.036 114.816 163.604 115.28 164.772 116.208C165.956 117.12 166.588 118.408 166.668 120.072H161.556C161.54 119.56 161.38 119.176 161.076 118.92C160.788 118.664 160.412 118.536 159.948 118.536C159.596 118.536 159.308 118.64 159.084 118.848C158.86 119.056 158.748 119.352 158.748 119.736C158.748 120.056 158.868 120.336 159.108 120.576C159.364 120.8 159.676 121 160.044 121.176C160.412 121.336 160.956 121.544 161.676 121.8C162.748 122.168 163.628 122.536 164.316 122.904C165.02 123.256 165.62 123.76 166.116 124.416C166.628 125.056 166.884 125.872 166.884 126.864C166.884 127.872 166.628 128.776 166.116 129.576C165.62 130.376 164.892 131.008 163.932 131.472C162.988 131.936 161.868 132.168 160.572 132.168Z" fill="black"/>
<path d="M2 138L210 138" stroke="#0D6D2E" stroke-width="3"/>
<path d="M2 140L210 140" stroke="#0D6D2E" stroke-width="3"/>
<path d="M2 144L210 144" stroke="black" stroke-width="3"/>
<path d="M2 146L210 146" stroke="black" stroke-width="3"/>
<path d="M62.5713 103H56.5028L47.1553 75.9852L37.7099 103H31.5924L44.2189 66.9802H50.0427L62.5713 103ZM50.3853 91.5481L51.8046 95.5122H42.457L43.8273 91.5481H50.3853ZM88.4605 66.9313H95.1653L84.4475 88.318V103H78.4768V90.9608L88.4605 66.9313ZM75.0021 66.9313L80.4344 80.977L77.7916 87.3882L68.2973 66.9313H75.0021ZM107.694 84.2071C107.694 86.7193 107.857 88.8564 108.183 90.6182C108.51 92.3474 108.983 93.783 109.603 94.9249C110.222 96.0342 110.957 96.8662 111.805 97.4209C112.686 97.9755 113.665 98.3018 114.741 98.3996V103.245C112.751 103.114 110.94 102.641 109.309 101.825C107.71 100.977 106.356 99.7863 105.247 98.2528C104.138 96.6868 103.273 94.7781 102.653 92.5269C102.033 90.2756 101.723 87.6981 101.723 84.7944V66.9313H107.694V84.2071ZM129.766 66.9313V84.7944C129.766 87.6981 129.456 90.2756 128.836 92.5269C128.216 94.7781 127.335 96.6868 126.193 98.2528C125.084 99.7863 123.73 100.977 122.131 101.825C120.532 102.641 118.738 103.114 116.748 103.245V98.3996C117.824 98.2691 118.787 97.9429 119.635 97.4209C120.516 96.8662 121.267 96.0342 121.886 94.9249C122.506 93.8156 122.979 92.3964 123.306 90.6671C123.665 88.9053 123.844 86.752 123.844 84.2071V66.9313H129.766ZM154.872 72.5104C154.709 72.4452 154.513 72.331 154.285 72.1679C154.056 72.0047 153.73 71.8579 153.306 71.7274C152.882 71.5643 152.343 71.4338 151.691 71.3359C151.038 71.238 150.206 71.2217 149.195 71.2869V66.344C150.631 66.3766 152.082 66.5398 153.551 66.8334C155.051 67.0944 156.259 67.5186 157.172 68.1058C156.976 68.53 156.748 69.0031 156.487 69.5251C156.226 70.0145 155.981 70.4876 155.753 70.9444C155.525 71.3685 155.329 71.7274 155.166 72.021C155.002 72.3147 154.905 72.4778 154.872 72.5104ZM137.988 76.4256C137.988 74.9901 138.232 73.7013 138.722 72.5594C139.211 71.4174 139.864 70.4223 140.679 69.574C141.528 68.6931 142.507 68.008 143.616 67.5186C144.758 66.9965 145.949 66.654 147.188 66.4908V71.6295C146.144 71.9884 145.28 72.6246 144.595 73.5382C143.909 74.4191 143.567 75.3163 143.567 76.2299C143.567 77.5023 143.909 78.53 144.595 79.3131C145.28 80.0961 146.144 80.7813 147.188 81.3686V86.9477C146.112 86.4257 145.035 85.871 143.958 85.2838C142.882 84.6638 141.903 83.9461 141.022 83.1304C140.141 82.3147 139.407 81.3686 138.82 80.2919C138.265 79.2152 137.988 77.9265 137.988 76.4256ZM138.771 96.3931C139.228 96.6541 139.799 96.9151 140.484 97.1762C141.201 97.4045 141.936 97.6329 142.686 97.8613C143.436 98.0571 144.187 98.2202 144.937 98.3507C145.688 98.4812 146.389 98.5465 147.042 98.5465H147.188V103.196H147.091C146.308 103.196 145.492 103.147 144.644 103.049C143.828 102.984 142.996 102.853 142.148 102.657C141.299 102.462 140.484 102.201 139.701 101.874C138.95 101.515 138.298 101.091 137.743 100.602L138.771 96.3931ZM149.195 82.3474C150.272 82.8368 151.365 83.3588 152.474 83.9134C153.616 84.4681 154.644 85.1532 155.557 85.9689C156.471 86.752 157.221 87.7144 157.808 88.8564C158.396 89.9983 158.689 91.4176 158.689 93.1141C158.689 94.2887 158.461 95.4306 158.004 96.5399C157.58 97.6492 156.96 98.6607 156.144 99.5742C155.361 100.455 154.383 101.206 153.208 101.825C152.033 102.445 150.696 102.853 149.195 103.049V98.3507C151.87 97.6982 153.208 95.92 153.208 93.0163C153.208 91.8743 152.833 90.9282 152.082 90.1777C151.332 89.4273 150.37 88.7259 149.195 88.0733V82.3474ZM192.36 66.9313V103H186.487V86.752H172.882V82.7389H186.487V66.9313H192.36ZM164.905 66.9313H170.875V103H164.905V66.9313Z" fill="#0D6D2E"/>
<path d="M18.9 76.98C19.7 76.98 20.62 77.22 21.66 77.7C22.7 78.18 23.62 78.8 24.42 79.56C24.22 77.96 23.96 76.46 23.64 75.06C23.36 73.62 22.92 72.14 22.32 70.62C21.76 69.1 21 67.44 20.04 65.64C19.08 63.84 17.88 61.78 16.44 59.46C16.56 59.1 16.82 58.68 17.22 58.2C17.66 57.72 18.14 57.28 18.66 56.88C19.22 56.44 19.78 56.06 20.34 55.74C20.94 55.42 21.5 55.22 22.02 55.14C23.14 56.38 24.2 57.94 25.2 59.82C26.2 61.66 27.08 63.66 27.84 65.82C28.6 67.94 29.18 70.14 29.58 72.42C30.02 74.7 30.24 76.88 30.24 78.96C30.24 81.04 30 83.18 29.52 85.38C29.08 87.58 28.44 89.74 27.6 91.86C26.8 93.94 25.86 95.92 24.78 97.8C23.7 99.68 22.52 101.36 21.24 102.84C20 104.32 18.7 105.52 17.34 106.44C15.98 107.4 14.62 108 13.26 108.24C10.5 107.92 8.38 107.02 6.9 105.54C5.46 104.1 4.74 102.1 4.74 99.54C4.74 98.18 4.94 96.7 5.34 95.1C5.78 93.5 6.34 91.92 7.02 90.36C7.74 88.76 8.56 87.22 9.48 85.74C10.44 84.22 11.44 82.86 12.48 81.66C13.56 80.46 14.64 79.44 15.72 78.6C16.8 77.76 17.86 77.22 18.9 76.98ZM12.78 105.84C14.18 105.36 15.58 104.3 16.98 102.66C18.38 101.02 19.64 99.1 20.76 96.9C21.88 94.66 22.78 92.28 23.46 89.76C24.18 87.2 24.54 84.74 24.54 82.38C24.54 81.7 24.54 81.28 24.54 81.12C24.54 80.96 24.52 80.8 24.48 80.64C23.52 81.04 22.5 81.72 21.42 82.68C20.34 83.64 19.26 84.76 18.18 86.04C17.1 87.28 16.08 88.64 15.12 90.12C14.16 91.6 13.3 93.08 12.54 94.56C11.78 96.04 11.18 97.46 10.74 98.82C10.3 100.18 10.08 101.38 10.08 102.42C10.08 104.42 10.98 105.56 12.78 105.84Z" fill="#0D6D2E"/>
<circle cx="213" cy="51" r="19.5" fill="white" stroke="black" stroke-width="3"/>
<path d="M209.98 53.44C205.547 53.4867 202.117 53.8367 199.69 54.49C199.13 53.51 198.85 52.39 198.85 51.13C198.85 49.8233 199.363 48.7733 200.39 47.98C201.463 47.14 202.84 46.72 204.52 46.72C205.033 46.72 207.017 46.93 210.47 47.35C210.47 42.7767 210.12 39.3 209.42 36.92C210.4 36.36 211.52 36.08 212.78 36.08C214.087 36.08 215.137 36.6167 215.93 37.69C216.77 38.7167 217.19 40.07 217.19 41.75C217.19 41.89 216.957 43.8967 216.49 47.77C220.923 47.7233 224.353 47.3733 226.78 46.72C227.34 47.7 227.62 48.8433 227.62 50.15C227.62 51.41 227.083 52.46 226.01 53.3C224.983 54.0933 223.63 54.49 221.95 54.49C221.437 54.49 219.453 54.28 216 53.86C216 58.4333 216.35 61.91 217.05 64.29C216.07 64.85 214.927 65.13 213.62 65.13C212.36 65.13 211.31 64.6167 210.47 63.59C209.677 62.5167 209.28 61.14 209.28 59.46C209.28 59.32 209.513 57.3133 209.98 53.44Z" fill="#0D6D2E"/>
</svg>
