<svg width="38" height="38" viewBox="0 0 38 38" fill="none" xmlns="http://www.w3.org/2000/svg">
<path d="M12.92 10.5293H25.0642C26.0775 10.5293 26.9009 11.3526 26.9009 12.366V14.3926C26.9009 15.1368 26.4417 16.0551 25.9825 16.5143L22.0242 20.0135C21.47 20.4726 21.1059 21.391 21.1059 22.1351V26.0935C21.1059 26.6476 20.7417 27.376 20.2825 27.661L19 28.4685C17.7967 29.2126 16.15 28.3735 16.15 26.901V22.0243C16.15 21.3751 15.7859 20.5518 15.4059 20.0926L11.9067 16.4035C11.4475 15.9601 11.0834 15.121 11.0834 14.5668V12.461C11.0834 11.3526 11.9067 10.5293 12.92 10.5293Z" stroke="#3A3A3A" stroke-width="1.5" stroke-miterlimit="10" stroke-linecap="round" stroke-linejoin="round"/>
</svg>
