<svg width="104" height="104" viewBox="0 0 104 104" fill="none" xmlns="http://www.w3.org/2000/svg">
<circle cx="52.4896" cy="51.9376" r="51.5101" fill="#F5F8FF"/>
<path d="M35.1325 35.2413H49.5074C50.8251 35.2413 51.9032 34.1632 51.9032 32.8455C51.9032 31.5278 50.8251 30.4497 49.5074 30.4497H35.1325C32.4971 30.4497 30.3408 32.6059 30.3408 35.2413V68.7828C30.3408 71.4182 32.4971 73.5745 35.1325 73.5745H49.5074C50.8251 73.5745 51.9032 72.4963 51.9032 71.1786C51.9032 69.8609 50.8251 68.7828 49.5074 68.7828H35.1325V35.2413Z" fill="#0D6D2E"/>
<path d="M72.6271 51.1731L65.9428 44.4888C65.7762 44.3176 65.5622 44.2001 65.3284 44.1512C65.0946 44.1022 64.8515 44.1242 64.6302 44.2143C64.409 44.3043 64.2196 44.4584 64.0864 44.6566C63.9532 44.8549 63.8821 45.0885 63.8824 45.3273V49.6159H47.1116C45.7939 49.6159 44.7158 50.694 44.7158 52.0117C44.7158 53.3294 45.7939 54.4075 47.1116 54.4075H63.8824V58.696C63.8824 59.7741 65.1761 60.3012 65.9188 59.5346L72.6032 52.8502C73.0823 52.395 73.0823 51.6283 72.6271 51.1731Z" fill="#0D6D2E"/>
</svg>
