<svg width="97" height="97" viewBox="0 0 97 97" fill="none" xmlns="http://www.w3.org/2000/svg">
<path d="M35.2383 41.4453H54.8729V44.6267H35.2383V41.4453Z" fill="#BFBFBF"/>
<path d="M35.2383 49.1523H54.8729V52.3334H35.2383V49.1523Z" fill="#BFBFBF"/>
<path d="M76.1602 34.457C76.1602 28.7988 71.557 24.1953 65.8988 24.1953C61.7433 24.1953 58.1564 26.6781 56.5448 30.2382H28.1257C24.6297 30.2382 21.7852 33.083 21.7852 36.5787V56.9378C21.7852 60.4341 24.6297 63.279 28.1257 63.279H29.8415V72.3858L43.4439 63.279H61.1533C64.6499 63.279 67.4945 60.4341 67.4945 56.9378V44.5942C72.397 43.8253 76.1602 39.5722 76.1602 34.457ZM61.1533 60.0973H42.4775L33.0226 66.4272V60.0973H28.1257C26.3837 60.0973 24.9662 58.6802 24.9662 56.9378V36.5787C24.9662 34.837 26.3837 33.4199 28.1257 33.4199H55.6895C55.655 33.7607 55.6371 34.1069 55.6371 34.457C55.6371 39.5756 59.4049 43.8312 64.3128 44.5959V56.9378C64.3128 58.6802 62.8953 60.0973 61.1533 60.0973ZM65.8988 41.537C61.9949 41.537 58.8188 38.3609 58.8188 34.457C58.8188 30.5528 61.9949 27.3764 65.8988 27.3764C69.8027 27.3764 72.9791 30.5528 72.9791 34.457C72.9791 38.3609 69.8027 41.537 65.8988 41.537Z" fill="#BFBFBF"/>
<path d="M64.3086 30.6914H67.49V38.2204H64.3086V30.6914Z" fill="#BFBFBF"/>
</svg>
