<svg width="30" height="30" viewBox="0 0 30 30" fill="none" xmlns="http://www.w3.org/2000/svg">
<path d="M7.52875 21.6153C8.59125 20.827 9.74875 20.2044 11.0013 19.7475C12.2535 19.2908 13.5865 19.0625 15 19.0625C16.4135 19.0625 17.7465 19.2908 18.9988 19.7475C20.2513 20.2044 21.4088 20.827 22.4713 21.6153C23.2483 20.7611 23.8641 19.7724 24.3184 18.6491C24.7728 17.5257 25 16.3094 25 15C25 12.2292 24.026 9.86979 22.0781 7.92188C20.1302 5.97396 17.7708 5 15 5C12.2292 5 9.86979 5.97396 7.92188 7.92188C5.97396 9.86979 5 12.2292 5 15C5 16.3094 5.22719 17.5257 5.68156 18.6491C6.13594 19.7724 6.75167 20.7611 7.52875 21.6153ZM15 15.9375C13.859 15.9375 12.8967 15.5456 12.1131 14.7619C11.3294 13.9783 10.9375 13.016 10.9375 11.875C10.9375 10.734 11.3294 9.77167 12.1131 8.98812C12.8967 8.20437 13.859 7.8125 15 7.8125C16.141 7.8125 17.1033 8.20437 17.8869 8.98812C18.6706 9.77167 19.0625 10.734 19.0625 11.875C19.0625 13.016 18.6706 13.9783 17.8869 14.7619C17.1033 15.5456 16.141 15.9375 15 15.9375ZM15 26.875C13.351 26.875 11.8042 26.5649 10.3594 25.9447C8.91458 25.3245 7.65781 24.4799 6.58906 23.4109C5.5201 22.3422 4.67552 21.0854 4.05531 19.6406C3.4351 18.1958 3.125 16.649 3.125 15C3.125 13.351 3.4351 11.8042 4.05531 10.3594C4.67552 8.91458 5.5201 7.65781 6.58906 6.58906C7.65781 5.5201 8.91458 4.67552 10.3594 4.05531C11.8042 3.4351 13.351 3.125 15 3.125C16.649 3.125 18.1958 3.4351 19.6406 4.05531C21.0854 4.67552 22.3422 5.5201 23.4109 6.58906C24.4799 7.65781 25.3245 8.91458 25.9447 10.3594C26.5649 11.8042 26.875 13.351 26.875 15C26.875 16.649 26.5649 18.1958 25.9447 19.6406C25.3245 21.0854 24.4799 22.3422 23.4109 23.4109C22.3422 24.4799 21.0854 25.3245 19.6406 25.9447C18.1958 26.5649 16.649 26.875 15 26.875Z" fill="black"/>
</svg>
