<svg width="28" height="28" viewBox="0 0 28 28" fill="none" xmlns="http://www.w3.org/2000/svg">
<path d="M23.0102 10.1029C22.8731 10.2131 20.4517 11.6269 20.4517 14.7706C20.4517 18.4068 23.5328 19.6931 23.625 19.725C23.6108 19.8034 23.1355 21.4867 22.0005 23.2019C20.9885 24.7112 19.9315 26.2181 18.3236 26.2181C16.7157 26.2181 16.3019 25.2503 14.4457 25.2503C12.6368 25.2503 11.9937 26.25 10.5229 26.25C9.05213 26.25 8.0259 24.8534 6.84597 23.1382C5.47925 21.1241 4.375 17.9951 4.375 15.0254C4.375 10.2622 7.36382 7.73595 10.3053 7.73595C11.8683 7.73595 13.1712 8.79936 14.1525 8.79936C15.0865 8.79936 16.5431 7.67224 18.3213 7.67224C18.9952 7.67224 21.4165 7.73595 23.0102 10.1029ZM17.4771 5.65569C18.2125 4.75155 18.7327 3.49702 18.7327 2.2425C18.7327 2.06853 18.7185 1.89211 18.6878 1.75C17.4913 1.79655 16.0678 2.57573 15.2095 3.60729C14.5356 4.40117 13.9066 5.65569 13.9066 6.92737C13.9066 7.11849 13.9373 7.30961 13.9515 7.37086C14.0272 7.38556 14.1501 7.40272 14.2731 7.40272C15.3466 7.40272 16.6968 6.65784 17.4771 5.65569Z" fill="black"/>
</svg>
