<svg width="28" height="28" viewBox="0 0 28 28" fill="none" xmlns="http://www.w3.org/2000/svg">
<path d="M26.2506 14.2758C26.2506 13.4693 26.1776 12.7037 26.0525 11.9585H14.2666V16.5625H21.0148C20.7123 18.0733 19.8258 19.3493 18.5116 20.217V23.2795H22.5376C24.8947 21.146 26.2506 18.0018 26.2506 14.2758Z" fill="#4285F4"/>
<path d="M14.2655 26.2502C17.6448 26.2502 20.4713 25.1477 22.5364 23.2796L18.5105 20.2171C17.384 20.9521 15.9551 21.4012 14.2655 21.4012C11.0009 21.4012 8.23695 19.2473 7.2461 16.3379H3.09497V19.4923C5.14967 23.4939 9.37381 26.2502 14.2655 26.2502Z" fill="#34A853"/>
<path d="M7.2466 16.3376C6.98585 15.6026 6.85026 14.8166 6.85026 13.9999C6.85026 13.1832 6.99628 12.3972 7.2466 11.6622V8.50781H3.09547C2.24021 10.1616 1.75 12.0195 1.75 13.9999C1.75 15.9803 2.24021 17.8382 3.09547 19.492L7.2466 16.3376Z" fill="#FBBC05"/>
<path d="M14.2655 6.59896C16.1116 6.59896 17.7595 7.22167 19.0633 8.43646L22.6303 4.94521C20.4713 2.96479 17.6448 1.75 14.2655 1.75C9.37381 1.75 5.14968 4.50625 3.09497 8.50792L7.2461 11.6623C8.23695 8.75292 11.0009 6.59896 14.2655 6.59896Z" fill="#EA4335"/>
</svg>
