<svg width="28" height="28" viewBox="0 0 28 28" fill="none" xmlns="http://www.w3.org/2000/svg">
<path d="M4.3963 16.5118C4.3963 17.4172 4.60163 18.1123 4.87001 18.5329C5.22188 19.0837 5.74671 19.3171 6.28177 19.3171C6.97188 19.3171 7.60321 19.1513 8.81986 17.5227C9.79455 16.2174 10.943 14.3851 11.7158 13.2364L13.0245 11.2903C13.9335 9.93881 14.9858 8.43637 16.1922 7.41798C17.1771 6.58678 18.2395 6.125 19.3088 6.125C21.1039 6.125 22.8139 7.13185 24.1226 9.0202C25.5548 11.0883 26.25 13.6932 26.25 16.3815C26.25 17.9796 25.9245 19.1538 25.3707 20.0815C24.8357 20.9787 23.7928 21.875 22.0386 21.875V19.3171C23.5407 19.3171 23.9155 17.9812 23.9155 16.4524C23.9155 14.2738 23.3907 11.856 22.2345 10.1285C21.4141 8.9031 20.3508 8.15436 19.181 8.15436C17.9158 8.15436 16.8976 9.07792 15.7534 10.7247C15.1451 11.5996 14.5206 12.6658 13.8194 13.8689L13.0475 15.1924C11.4968 17.8534 11.1041 18.4595 10.3287 19.4597C8.96981 21.2112 7.8094 21.875 6.28177 21.875C4.46957 21.875 3.32364 21.1155 2.61392 19.971C2.03457 19.0383 1.75 17.8146 1.75 16.4202L4.3963 16.5118Z" fill="#0081FB"/>
<path d="M3.83655 9.20079C5.04979 7.39077 6.80064 6.125 8.80879 6.125C9.97177 6.125 11.1279 6.45814 12.3352 7.41221C13.6558 8.45534 15.0633 10.173 16.8193 13.0039L17.4489 14.0198C18.9688 16.4705 19.8336 17.7313 20.3397 18.3259C20.9906 19.0895 21.4464 19.3171 22.0386 19.3171C23.5407 19.3171 23.9155 17.9812 23.9155 16.4524L26.25 16.3815C26.25 17.9796 25.9245 19.1538 25.3707 20.0815C24.8357 20.9787 23.7928 21.875 22.0386 21.875C20.948 21.875 19.9819 21.6458 18.9135 20.6702C18.0921 19.9215 17.1319 18.5914 16.3933 17.3957L14.196 13.8433C13.0935 12.0605 12.0822 10.7313 11.4968 10.1293C10.8672 9.48198 10.0578 8.70025 8.7662 8.70025C7.7208 8.70025 6.83302 9.41024 6.09008 10.4962L3.83655 9.20079Z" fill="url(#paint0_linear_4296_2753)"/>
<path d="M8.76619 8.70025C7.72079 8.70025 6.83301 9.41024 6.09007 10.4962C5.03956 12.0308 4.3963 14.3166 4.3963 16.5118C4.3963 17.4172 4.60163 18.1123 4.87001 18.5329L2.61392 19.971C2.03457 19.0383 1.75 17.8146 1.75 16.4202C1.75 13.8846 2.46909 11.2417 3.83654 9.20079C5.04978 7.39077 6.80063 6.125 8.80879 6.125L8.76619 8.70025Z" fill="url(#paint1_linear_4296_2753)"/>
<defs>
<linearGradient id="paint0_linear_4296_2753" x1="6.94718" y1="15.7729" x2="23.8138" y2="16.653" gradientUnits="userSpaceOnUse">
<stop stop-color="#0064E1"/>
<stop offset="0.4" stop-color="#0064E1"/>
<stop offset="0.83" stop-color="#0073EE"/>
<stop offset="1" stop-color="#0082FB"/>
</linearGradient>
<linearGradient id="paint1_linear_4296_2753" x1="5.58398" y1="17.587" x2="5.58398" y2="11.5674" gradientUnits="userSpaceOnUse">
<stop stop-color="#0082FB"/>
<stop offset="1" stop-color="#0064E0"/>
</linearGradient>
</defs>
</svg>
